<svg width="534" height="361" viewBox="0 0 534 361" fill="none" xmlns="http://www.w3.org/2000/svg">
<g clip-path="url(#clip0_2_1349)">
<g style="mix-blend-mode:color-dodge" opacity="0.45" filter="url(#filter0_f_2_1349)">
<rect x="88.8822" y="95" width="507.236" height="287" fill="#7A9096"/>
</g>
<rect width="545" height="361" rx="15" fill="#609EAF"/>
<path d="M619.282 -282.606C611.811 -235.607 602.029 -188.966 586.846 -144.934C581.923 -130.658 576.394 -116.584 568.902 -104.155C553.626 -78.8117 531.222 -61.8579 512.502 -40.3795C488.726 -13.1022 470.91 22.0385 461.04 60.3229C453.615 89.1304 447.841 124.808 433.355 149.693C420.196 172.3 388.944 174.988 369.399 185.021C349.38 195.299 332.153 213.328 319.968 235.517C313.585 247.141 308.556 259.941 305.23 273.402C302.051 286.275 302.858 302.016 289.52 305.169C285.112 306.211 280.58 305.053 276.091 305.064C260.495 305.102 245.994 321.335 244.332 340.621M618.758 -280.778C612.008 -234.152 602.616 -187.624 587.535 -143.811C582.52 -129.215 576.722 -115.035 569.228 -102.224C560.172 -86.7846 548.594 -74.256 536.705 -62.0329C528.59 -53.6884 520.33 -45.4872 512.625 -36.6014C497.406 -19.0463 484.369 1.39993 474.032 23.5398C467.987 36.4859 462.87 50.0112 458.788 63.9092C455.909 73.6566 453.211 84.1679 450.294 94.7579C446.18 109.637 441.624 124.671 435.566 138.138C433.394 142.977 431.029 147.612 428.421 151.947C417.629 169.858 396.146 176.111 378.139 183.403C373.304 185.348 368.72 187.367 364.654 189.709C347.906 199.284 333.317 214.379 322.168 232.749C320.247 235.911 318.428 239.172 316.716 242.521C310.61 254.463 305.821 267.551 302.565 281.254C300.637 289.37 300.147 298.542 296.906 305.211C294.911 309.318 291.873 312.446 286.839 313.831C282.441 315.042 277.911 314.145 273.412 314.355C257.788 315.069 243.123 331.37 241.124 350.845M618.233 -278.953C612.205 -232.697 603.202 -186.284 588.223 -142.688C583.114 -127.769 577.048 -113.484 569.551 -100.295C560.518 -84.4799 548.959 -71.5209 537.027 -58.9233C528.88 -50.3202 520.557 -41.8849 512.744 -32.8236C497.308 -14.9283 483.865 5.62015 472.949 27.6122C466.566 40.4696 461.054 53.8233 456.532 67.4953C453.325 77.0921 450.287 87.4042 447.033 97.7774C442.433 112.358 437.393 127.064 430.958 140.433C428.659 145.233 426.184 149.854 423.481 154.205C412.271 172.207 390.914 179.271 373.164 187.434C368.402 189.6 363.903 191.858 359.908 194.403C343.514 204.846 329.357 220.566 318.674 239.483C316.835 242.737 315.098 246.09 313.462 249.527C307.631 261.788 303.083 275.164 299.898 289.11C298.011 297.373 297.472 306.649 294.204 313.485C292.19 317.698 289.14 320.928 284.157 322.498C279.768 323.88 275.242 323.241 270.732 323.65C255.081 325.038 240.248 341.41 237.914 361.07M617.71 -277.128C612.401 -231.244 603.789 -184.942 588.912 -141.568C583.709 -126.328 577.376 -111.937 569.877 -98.3665C560.868 -82.1751 549.329 -68.7869 537.352 -55.8149C529.174 -46.9518 520.79 -38.2838 512.865 -29.0484C497.214 -10.8128 483.364 9.83769 471.868 31.6791C465.146 44.4505 459.27 57.648 454.277 71.0775C450.762 80.5347 447.362 90.6366 443.775 100.792C438.687 115.074 433.165 129.45 426.353 142.721C423.927 147.48 421.34 152.089 418.545 156.456C406.916 174.55 385.706 182.48 368.191 191.458C363.507 193.858 359.085 196.33 355.162 199.087C339.112 210.362 325.397 226.745 315.185 246.208C313.426 249.555 311.768 252.998 310.211 256.525C304.656 269.103 300.35 282.767 297.235 296.955C295.39 305.366 294.803 314.743 291.506 321.748C289.474 326.069 286.413 329.402 281.477 331.154C277.097 332.708 272.574 332.326 268.053 332.933C252.375 334.996 237.375 351.435 234.706 371.286M617.186 -275.301C612.598 -229.789 604.376 -183.6 589.603 -140.443C584.306 -124.881 577.727 -110.369 570.203 -96.4355C561.244 -79.847 549.699 -66.0516 537.679 -52.7023C529.469 -43.582 521.024 -34.6786 512.989 -25.269C497.122 -6.69185 482.867 14.0608 470.791 35.7529C463.73 48.4357 457.467 61.4698 452.026 74.6652C448.188 83.9773 444.442 93.8731 440.52 103.814C434.947 117.797 428.939 131.846 421.752 145.018C419.198 149.738 416.498 154.334 413.612 158.714C401.565 176.9 380.489 185.655 363.22 195.489C358.611 198.114 354.271 200.81 350.42 203.778C334.716 215.882 321.442 232.93 311.696 252.94C310.017 256.38 308.44 259.914 306.961 263.529C301.683 276.424 297.617 290.379 294.572 304.807C292.768 313.366 292.131 322.843 288.807 330.018C286.756 334.447 283.685 337.885 278.798 339.816C274.427 341.545 269.908 341.419 265.376 342.224C249.67 344.963 234.505 361.472 231.5 381.507M616.662 -273.476C612.796 -228.335 604.965 -182.26 590.291 -139.322C584.9 -123.438 578.059 -108.817 570.527 -94.5074C561.596 -77.5395 550.066 -63.3178 538.002 -49.5941C529.761 -40.2137 521.255 -31.0777 513.108 -21.494C497.026 -2.57659 482.365 18.2769 469.709 39.8212C462.309 52.418 455.658 65.2846 449.771 78.2472C445.609 87.4115 441.538 97.1176 437.26 106.83C431.227 120.532 424.685 134.209 417.145 147.307C414.455 151.979 411.654 156.568 408.673 160.965C396.206 179.244 375.266 188.821 358.245 199.515C353.711 202.363 349.451 205.286 345.672 208.464C330.311 221.393 317.481 239.11 308.203 259.669C306.606 263.201 305.108 266.825 303.706 270.531C298.706 283.745 294.879 297.99 291.904 312.659C290.141 321.365 289.455 330.946 286.104 338.288C284.035 342.824 280.951 346.367 276.115 348.478C271.752 350.381 267.238 350.512 262.695 351.515C246.963 354.928 231.63 371.506 228.289 391.731M616.139 -271.649C612.993 -226.881 605.552 -180.918 590.981 -138.199C585.497 -121.993 578.391 -107.265 570.853 -92.5765C561.951 -75.2293 550.434 -60.5825 538.327 -46.4829C530.054 -36.8439 521.486 -27.4726 513.231 -17.7161C496.933 1.54292 481.867 22.4986 468.63 43.8922C460.891 56.4004 453.851 69.1037 447.518 81.8321C443.032 90.8499 438.618 100.354 434.004 109.847C427.487 123.256 420.455 136.595 412.541 149.598C409.724 154.229 406.812 158.809 403.738 163.218C390.853 181.588 370.047 191.986 353.272 203.541C348.813 206.613 344.634 209.757 340.928 213.152C325.912 226.903 313.523 245.292 304.712 266.397C303.194 270.023 301.778 273.738 300.453 277.531C295.729 291.062 292.143 305.595 289.238 320.508C287.517 329.362 286.782 339.045 283.403 346.555C281.317 351.197 278.22 354.851 273.432 357.139C269.078 359.219 264.568 359.602 260.015 360.801C244.255 364.89 228.755 381.537 225.081 401.95M615.614 -269.823C613.187 -225.426 606.138 -179.578 591.668 -137.076C586.09 -120.549 578.719 -105.714 571.175 -90.6469C562.301 -72.9218 550.8 -57.8473 538.649 -43.3733C530.345 -33.4743 521.716 -23.8702 513.349 -13.9396C496.836 5.65966 481.362 26.7174 467.547 47.9618C459.47 60.3827 452.04 72.9212 445.261 85.4169C440.449 94.2895 435.693 103.592 430.743 112.866C423.741 125.98 416.221 138.983 407.934 151.891C404.989 156.48 401.965 161.049 398.798 165.474C385.493 183.936 364.824 195.152 348.296 207.569C343.911 210.862 339.813 214.231 336.179 217.84C321.506 232.41 309.56 251.475 301.218 273.128C299.78 276.845 298.445 280.653 297.198 284.534C292.75 298.382 289.404 313.205 286.569 328.359C284.889 337.36 284.104 347.146 280.698 354.823C278.593 359.572 275.485 363.338 270.747 365.799C266.4 368.057 261.896 368.692 257.331 370.09C241.544 374.851 225.879 391.569 221.867 412.17M615.09 -267.998C613.385 -223.973 606.726 -178.238 592.359 -135.954C586.687 -119.105 579.051 -104.165 571.502 -88.7174C562.655 -70.6157 551.17 -55.1121 538.976 -40.2622C530.641 -30.106 521.951 -20.2665 513.473 -10.1604C496.744 9.78044 480.864 30.939 466.469 52.0355C458.053 64.369 450.231 76.7415 443.01 89.0045C437.872 97.7306 432.775 106.831 427.488 115.886C420.002 128.706 411.995 141.371 403.332 154.185C400.258 158.733 397.125 163.289 393.864 167.729C380.142 186.282 359.608 198.315 343.325 211.597C339.015 215.113 334.998 218.706 331.437 222.528C317.105 237.913 305.604 257.656 297.732 279.857C296.375 283.667 295.12 287.565 293.949 291.536C289.778 305.702 286.672 320.815 283.908 336.211C282.269 345.359 281.435 355.246 278.001 363.092C275.878 367.949 272.759 371.828 268.07 374.461C263.732 376.899 259.231 377.783 254.657 379.381C238.842 384.817 223.01 401.605 218.664 422.392M614.566 -266.171C613.582 -222.518 607.313 -176.896 593.047 -134.83C587.281 -117.659 579.381 -102.613 571.825 -86.7851C563.004 -68.3068 551.536 -52.3741 539.298 -37.1497C530.932 -26.7335 522.178 -16.6614 513.592 -6.38249C496.648 13.8986 480.361 35.1606 465.386 56.1051C456.632 68.3514 448.419 80.5578 440.755 92.5893C435.29 101.169 429.852 110.069 424.229 118.904C416.258 131.429 407.763 143.759 398.725 156.478C395.523 160.985 392.279 165.53 388.924 169.985C374.782 188.631 354.383 201.478 338.349 215.628C334.114 219.364 330.176 223.181 326.688 227.219C312.699 243.416 301.642 263.841 294.236 286.588C292.96 290.491 291.785 294.48 290.693 298.54C286.798 313.023 283.934 328.426 281.239 344.064C279.642 353.359 278.757 363.35 275.297 371.364C273.155 376.328 270.024 380.32 265.384 383.127C261.053 385.745 256.558 386.879 251.972 388.673C236.131 394.784 220.131 411.641 215.449 432.616M614.043 -264.346C613.779 -221.066 607.901 -175.556 593.737 -133.71C587.877 -116.216 579.711 -101.065 572.151 -84.8567C563.356 -66.0005 551.906 -49.6414 539.623 -34.0399C531.224 -23.3651 522.41 -13.059 513.713 -2.60456C496.553 18.0182 479.86 39.381 464.306 60.1776C455.212 72.3366 446.606 84.3755 438.501 96.1756C432.709 104.607 426.931 113.308 420.971 121.925C412.513 134.154 403.534 146.149 394.122 158.774C390.793 163.238 387.436 167.773 383.99 172.242C369.43 190.979 349.164 204.638 333.377 219.658C329.217 223.616 325.36 227.655 321.944 231.91C308.295 248.916 297.685 270.025 290.747 293.321C289.551 297.318 288.456 301.397 287.442 305.546C283.824 320.346 281.2 336.039 278.575 351.916C277.02 361.358 276.087 371.452 272.598 379.633C270.438 384.706 267.297 388.812 262.705 391.789C258.383 394.589 253.895 395.983 249.295 397.964C233.438 404.792 217.261 421.676 212.243 442.84M613.518 -262.52C613.975 -219.61 608.486 -174.214 594.425 -132.588C588.471 -114.774 580.039 -99.5161 572.475 -82.9287C563.705 -63.6972 552.273 -46.9076 539.946 -30.9316C531.516 -19.9968 522.641 -9.45807 513.832 1.17047C496.457 22.1334 479.356 43.5985 463.224 64.2458C453.792 76.3175 444.79 88.1903 436.246 99.7577C430.126 108.042 424.007 116.541 417.712 124.939C408.768 136.872 399.305 148.533 389.516 161.062C386.059 165.488 382.592 170.008 379.051 174.493C364.071 193.323 343.939 207.792 328.4 223.682C324.315 227.86 320.537 232.123 317.196 236.597C303.885 254.409 293.723 276.206 287.253 300.049C286.137 304.137 285.124 308.308 284.187 312.546C280.845 327.663 278.461 343.646 275.907 359.765C274.393 369.355 273.409 379.55 269.894 387.9C267.718 393.079 264.565 397.304 260.021 400.447C255.707 403.433 251.224 405.071 246.612 407.249C230.728 414.752 214.384 431.706 209.031 453.057M612.994 -260.693C614.172 -218.155 609.074 -172.871 595.115 -131.463C589.069 -113.327 580.369 -97.9641 572.801 -80.995C564.057 -61.3883 552.641 -44.1696 540.271 -27.8177C531.811 -16.6257 522.874 -5.85153 513.955 4.95115C496.364 26.2557 478.858 47.8229 462.146 68.321C452.374 80.3054 442.979 92.0106 433.993 103.348C427.545 111.484 421.085 119.783 414.455 127.963C405.024 139.6 395.076 150.927 384.912 163.359C381.327 167.743 377.749 172.252 374.116 176.753C358.719 195.674 338.719 210.953 323.431 227.715C319.419 232.112 315.722 236.598 312.455 241.289C299.481 259.906 289.768 282.392 283.766 306.783C282.731 310.965 281.798 315.227 280.938 319.554C277.874 334.989 275.729 351.259 273.246 367.623C271.773 377.36 270.741 387.657 267.197 396.175C265.002 401.46 261.838 405.806 257.343 409.117C253.04 412.287 248.559 414.171 243.936 416.547C228.027 424.725 211.514 441.747 205.825 463.287M612.471 -258.868C614.369 -216.703 609.596 -171.567 595.804 -130.343C589.635 -111.9 580.696 -96.4175 573.125 -79.0681C564.405 -59.0862 553.009 -41.4371 540.596 -24.7094C532.105 -13.2573 523.105 -2.24914 514.076 8.72633C496.27 30.3712 478.358 52.0391 461.065 72.3879C450.955 84.285 441.164 95.82 431.739 106.929C424.963 114.916 418.161 123.014 411.198 130.977C401.28 142.319 390.85 153.311 380.308 165.648C376.596 169.991 372.905 174.489 369.179 179.004C353.363 198.018 333.495 214.103 318.457 231.74C314.52 236.356 310.902 241.066 307.708 245.974C295.071 265.394 285.808 288.571 280.274 313.508C279.319 317.783 278.466 322.135 277.685 326.551C274.897 342.304 272.993 358.864 270.579 375.468C269.147 385.352 268.066 395.753 264.495 404.438C262.281 409.831 259.108 414.295 254.661 417.772C250.367 421.129 245.89 423.257 241.257 425.83C225.323 434.683 208.641 451.775 202.617 473.501M611.946 -257.043C614.566 -215.248 610.182 -170.226 596.492 -129.22C590.228 -110.456 581.023 -94.8696 573.448 -77.1385C564.751 -56.7814 553.375 -38.7018 540.918 -21.5996C532.395 -9.88897 523.335 1.35327 514.195 12.5042C496.172 34.4893 477.855 56.2608 459.982 76.4603C449.533 88.2701 439.345 99.6363 429.483 110.515C422.376 118.353 415.236 126.252 407.937 133.997C397.531 145.042 386.62 155.702 375.7 167.942C371.86 172.246 368.06 176.73 364.24 181.26C348.005 200.364 328.268 217.258 313.479 235.769C309.616 240.605 306.079 245.537 302.958 250.664C290.654 270.886 281.845 294.754 276.779 320.24C275.905 324.605 275.133 329.049 274.428 333.555C271.918 349.625 270.254 366.476 267.91 383.321C266.519 393.352 265.389 403.855 261.791 412.709C259.559 418.21 256.376 422.795 251.976 426.436C247.692 429.981 243.219 432.348 238.574 435.121C222.613 444.648 205.765 461.809 199.404 483.724M611.423 -255.217C614.763 -213.793 610.771 -168.885 597.182 -128.098C590.824 -109.013 581.351 -93.3219 573.775 -75.2091C565.101 -54.4768 553.745 -35.9666 541.245 -18.49C532.69 -6.51935 523.569 4.95549 514.318 16.2792C496.08 38.6046 477.356 60.4782 458.904 80.5298C448.116 92.2523 437.532 103.448 427.231 114.098C419.795 121.787 412.314 129.485 404.68 137.014C393.786 147.76 382.394 158.091 371.097 170.232C367.131 174.496 363.218 178.968 359.305 183.511C342.651 202.708 323.044 220.406 308.507 239.793C304.717 244.848 301.26 250.003 298.215 255.35C286.243 276.372 277.887 300.936 273.29 326.968C272.496 331.428 271.805 335.963 271.179 340.556C268.944 356.944 267.521 374.083 265.248 391.172C263.897 401.35 262.719 411.955 259.093 420.978C256.843 426.586 253.651 431.293 249.297 435.098C245.024 438.831 240.553 441.441 235.897 444.412C219.909 454.613 202.892 471.844 196.198 493.946M610.899 -253.391C614.959 -212.34 611.423 -167.51 597.87 -126.975C591.448 -107.551 581.677 -91.7725 574.098 -73.2794C565.447 -52.1719 554.112 -33.2326 541.567 -15.3801C532.981 -3.15223 523.798 8.55666 514.437 20.0573C495.983 42.7242 476.852 64.6985 457.821 84.5995C446.694 96.2347 435.714 107.259 424.974 117.683C417.207 125.22 409.386 132.72 401.421 140.032C390.038 150.481 378.164 160.481 366.49 172.525C362.397 176.748 358.371 181.208 354.365 185.767C337.293 205.055 317.814 223.558 303.531 243.824C299.815 249.097 296.436 254.476 293.467 260.04C281.826 281.861 273.926 307.119 269.796 333.699C269.083 338.25 268.471 342.878 267.922 347.56C265.965 364.265 264.782 381.694 262.578 399.024C261.269 409.349 260.041 420.057 256.388 429.246C254.12 434.959 250.92 439.792 246.612 443.758C242.35 447.68 237.875 450.519 233.213 453.7C217.181 464.536 200.016 481.876 192.985 504.166M610.374 -251.565C615.156 -210.885 612.01 -166.168 598.559 -125.852C592.044 -106.108 582.005 -90.2244 574.424 -71.3483C565.796 -49.867 554.48 -30.4972 541.893 -12.2675C533.276 0.220346 524.031 12.1632 514.559 23.8366C495.89 46.8438 476.353 68.9217 456.741 88.6735C445.276 100.221 433.899 111.074 422.721 121.271C414.624 128.657 406.464 135.956 398.163 143.053C386.292 153.203 373.937 162.873 361.886 174.82C357.667 179.002 353.529 183.449 349.43 188.023C331.938 207.403 312.586 226.709 298.559 247.851C294.916 253.344 291.616 258.944 288.723 264.728C277.41 287.349 269.969 313.3 266.306 340.429C265.674 345.074 265.143 349.79 264.67 354.561C262.989 371.584 262.047 389.302 259.913 406.875C258.645 417.348 257.368 428.156 253.688 437.515C251.402 443.335 248.195 448.292 243.932 452.419C239.683 456.531 235.208 459.609 230.534 462.989C214.476 474.499 197.143 491.909 189.776 514.388M609.851 -249.739C615.354 -209.431 612.598 -164.828 599.25 -124.731C592.641 -104.664 582.333 -88.6778 574.75 -69.42C566.144 -47.5648 554.849 -27.7633 542.218 -9.15915C533.569 3.58735 524.263 15.7643 514.682 27.6118C495.797 50.9606 475.854 73.1393 455.664 92.7418C443.859 104.202 432.086 114.881 420.47 124.853C412.043 132.087 403.543 139.188 394.909 146.067C382.548 155.918 369.714 165.261 357.285 177.11C352.938 181.253 348.689 185.687 344.496 190.275C326.585 209.749 307.36 229.857 293.589 251.877C290.017 257.587 286.796 263.411 283.98 269.415C272.993 292.832 266.012 319.481 262.818 347.155C262.265 351.893 261.815 356.701 261.421 361.56C260.016 378.899 259.315 396.909 257.251 414.72C256.024 425.34 254.697 436.252 250.99 445.778C248.686 451.706 245.474 456.787 241.253 461.076C237.018 465.38 232.542 468.697 227.857 472.274C211.771 484.458 194.273 501.938 186.571 524.605M609.327 -247.913C615.55 -207.978 613.184 -163.488 599.937 -123.608C593.234 -103.22 582.656 -87.1288 575.072 -67.4879C566.489 -45.2588 555.215 -25.0255 542.54 -6.04679C533.86 6.95968 524.493 19.3693 514.8 31.3909C495.7 55.0799 475.35 77.3621 454.579 96.814C442.436 108.187 430.264 118.693 418.212 128.439C409.455 135.52 400.613 142.423 391.647 149.088C378.798 158.64 365.484 167.655 352.677 179.404C348.203 183.507 343.841 187.928 339.556 192.531C321.227 212.096 302.128 233.007 288.612 255.907C285.113 261.836 281.972 267.881 279.231 274.106C268.569 298.321 262.049 325.666 259.324 353.888C258.853 358.718 258.482 363.619 258.165 368.565C257.038 386.223 256.576 404.521 254.583 422.574C253.397 433.342 252.022 444.356 248.288 454.051C245.966 460.087 242.747 465.294 238.57 469.743C234.348 474.239 229.872 477.792 225.177 481.569C209.064 494.427 191.398 511.978 183.36 534.832M608.803 -246.088C615.747 -206.524 613.771 -162.146 600.627 -122.488C593.83 -101.777 582.982 -85.5837 575.397 -65.5612C566.835 -42.9569 555.583 -22.2931 542.864 -2.9399C534.152 10.3252 524.725 22.9689 514.922 35.1647C495.606 59.1953 474.85 81.5783 453.501 100.881C441.018 112.167 428.45 122.498 415.96 132.02C406.872 138.949 397.691 145.651 388.39 152.102C375.052 161.353 361.259 170.042 348.073 181.693C343.472 185.758 338.999 190.163 334.619 194.782C315.871 214.44 296.896 236.154 283.638 259.932C280.211 266.078 277.149 272.347 274.486 278.791C264.149 303.805 258.091 331.845 255.833 360.614C255.441 365.537 255.153 370.527 254.912 375.565C254.061 393.542 253.84 412.127 251.917 430.424C250.774 441.338 249.347 452.455 245.587 462.318C243.246 468.462 240.022 473.795 235.888 478.401C231.681 483.091 227.203 486.881 222.496 490.855C206.355 504.388 188.524 522.007 180.151 545.049M608.279 -244.261C615.944 -205.069 614.359 -160.804 601.316 -121.362C594.426 -100.33 583.308 -84.0344 575.723 -63.6275C567.182 -40.6507 555.952 -19.5536 543.191 0.175356C534.448 13.6991 524.958 26.578 515.044 38.9466C495.513 63.3175 474.35 85.8026 452.421 104.957C439.601 116.156 426.633 126.312 413.706 135.612C404.288 142.387 394.767 148.89 385.133 155.126C371.306 164.075 357.031 172.44 343.468 183.991C338.741 188.016 334.155 192.409 329.683 197.042C310.516 216.79 291.664 239.307 278.664 263.965C275.309 270.33 272.324 276.823 269.74 283.485C259.724 309.295 254.131 338.032 252.341 367.35C252.03 372.367 251.821 377.447 251.659 382.573C251.084 400.867 251.103 419.742 249.25 438.28C248.148 449.341 246.673 460.56 242.884 470.592C240.526 476.841 237.298 482.302 233.205 487.069C229.013 491.95 224.531 495.978 219.816 500.15C203.647 514.359 185.65 532.047 176.94 555.275M607.754 -242.435C616.139 -203.615 614.946 -159.463 602.004 -120.24C595.022 -98.8869 583.633 -82.4879 576.047 -61.6993C567.526 -38.3487 556.32 -16.8211 543.514 3.28368C534.739 17.066 525.187 30.1776 515.164 42.7231C495.417 67.4355 473.849 90.0215 451.339 109.026C438.179 120.137 424.815 130.117 411.451 139.194C401.702 145.814 391.841 152.121 381.874 158.143C367.558 166.791 352.805 174.832 338.862 186.281C334.009 190.268 329.311 194.648 324.746 199.296C305.16 219.137 286.43 242.454 273.691 267.991C270.407 274.574 267.501 281.289 264.994 288.171C255.3 314.78 250.172 344.213 248.851 374.078C248.621 379.186 248.491 384.358 248.408 389.573C248.11 408.184 248.369 427.349 246.586 446.129C245.526 457.338 244.001 468.66 240.185 478.859C237.809 485.215 234.578 490.804 230.526 495.728C226.35 500.804 221.866 505.068 217.138 509.436C200.943 524.32 182.777 542.078 173.734 565.494M607.231 -240.61C616.338 -202.162 615.533 -158.124 602.693 -119.119C595.616 -97.444 583.924 -80.9606 576.371 -59.7711C567.835 -36.0672 556.686 -14.0886 543.837 6.3921C535.031 20.4344 525.418 33.7788 515.284 46.497C495.322 71.5497 473.347 94.2377 450.258 113.094C436.759 124.118 422.997 133.921 409.196 142.776C399.116 149.242 388.916 155.351 378.615 161.157C363.811 169.503 348.596 177.256 334.256 188.57C329.282 192.529 324.467 196.883 319.808 201.546C299.804 221.479 281.195 245.599 268.717 272.016C265.504 278.816 262.678 285.755 260.247 292.857C250.874 320.263 246.211 350.393 245.358 380.804C245.208 386.004 245.161 391.268 245.153 396.573C245.131 415.501 245.632 434.956 243.918 453.978C242.9 465.335 241.325 476.758 237.482 487.126C235.087 493.59 231.853 499.305 227.842 504.388C223.683 509.659 219.196 514.158 214.456 518.725C198.234 534.284 179.903 552.11 170.524 575.715M606.707 -238.783C616.533 -200.706 616.12 -156.782 603.383 -117.996C596.212 -95.9982 584.253 -79.41 576.697 -57.8401C568.184 -33.7611 557.055 -11.3519 544.162 9.50329C535.324 23.8042 525.651 37.3826 515.406 50.2763C495.228 75.6706 472.848 98.4608 449.179 117.166C435.341 128.103 421.183 137.73 406.944 146.362C396.534 152.674 385.986 158.56 375.359 164.177C360.055 172.187 344.368 179.647 329.654 190.863C324.552 194.781 319.625 199.123 314.873 203.802C294.449 223.827 275.962 248.748 263.744 276.045C260.603 283.063 257.854 290.225 255.504 297.546C246.449 325.751 242.255 356.576 241.869 387.536C241.8 392.83 241.833 398.184 241.903 403.577C242.158 422.823 242.899 442.567 241.255 461.83C240.277 473.334 238.654 484.859 234.783 495.396C232.37 501.968 229.133 507.809 225.161 513.051C221.02 518.515 216.527 523.249 211.777 528.016C195.529 544.249 177.029 562.144 167.314 585.938M606.183 -236.958C616.73 -199.254 616.708 -155.442 604.073 -116.874C596.808 -94.5555 584.581 -77.8622 577.023 -55.912C568.534 -31.4564 557.424 -8.61803 544.488 12.613C535.62 27.1725 525.884 40.9863 515.528 54.0528C495.134 79.7887 472.347 102.68 448.1 121.237C433.924 132.087 419.367 141.535 404.69 149.948C393.95 156.104 383.063 161.795 372.101 167.198C356.309 174.909 340.141 182.04 325.048 193.158C319.819 197.037 314.78 201.366 309.936 206.059C289.094 226.175 270.725 251.899 258.77 280.075C255.7 287.311 253.028 294.696 250.757 302.237C242.02 331.241 238.295 362.76 238.376 394.267C238.387 399.653 238.5 405.099 238.649 410.581C239.18 430.144 240.161 450.178 238.589 469.682C237.653 481.333 235.98 492.962 232.082 503.665C229.651 510.345 226.412 516.315 222.48 521.713C218.358 527.374 213.859 532.342 209.097 537.305C192.821 554.214 174.156 572.178 164.106 596.159M605.659 -235.133C616.927 -197.799 617.294 -154.101 604.76 -115.752C597.402 -93.1099 584.906 -76.3129 577.346 -53.981C568.881 -29.1502 557.791 -5.88148 544.811 15.724C535.912 30.5435 526.114 44.5899 515.649 57.8306C495.04 83.9067 471.846 106.9 447.019 125.307C432.503 136.069 417.551 145.34 402.436 153.532C391.365 159.533 380.141 165.028 368.843 170.213C352.565 177.625 335.912 184.428 320.445 195.448C315.09 199.287 309.938 203.604 305 208.311C283.739 228.52 265.49 255.047 253.798 284.099C250.798 291.555 248.205 299.162 246.013 306.922C237.592 336.724 234.337 368.939 234.887 400.995C234.978 406.474 235.172 412.009 235.398 417.581C236.207 437.462 237.427 457.784 235.926 477.531C235.03 489.33 233.308 501.059 229.383 511.932C226.934 518.717 223.695 524.817 219.801 530.373C215.697 536.228 211.192 541.431 206.42 546.593C190.117 564.177 171.285 582.211 160.898 606.379M605.135 -233.305C617.124 -196.344 617.882 -152.758 605.45 -114.629C597.997 -91.6657 585.234 -74.7637 577.671 -52.0515C569.23 -26.8455 558.159 -3.14625 545.135 18.835C536.203 33.9132 526.345 48.1937 515.769 61.6098C494.943 88.0262 471.344 111.123 445.937 129.381C431.083 140.056 415.723 149.117 400.181 157.121C388.774 162.943 377.218 168.266 365.584 173.236C348.82 180.349 331.683 186.821 315.839 197.745C310.356 201.545 305.094 205.847 300.063 210.57C278.383 230.87 260.209 258.174 248.824 288.132C245.883 295.799 243.38 303.637 241.266 311.616C233.162 342.218 230.376 375.128 231.395 407.728C231.566 413.3 231.841 418.927 232.144 424.587C233.229 444.786 234.69 465.398 233.258 485.386C232.403 497.331 230.632 509.165 226.679 520.205C224.212 527.097 220.972 533.324 217.116 539.039C213.034 545.09 208.521 550.528 203.738 555.889C187.408 574.146 168.409 592.249 157.688 616.606M604.612 -231.481C617.32 -194.891 618.469 -151.418 606.139 -113.507C598.593 -90.2227 585.562 -73.2144 577.996 -50.1218C569.578 -24.5406 558.526 -0.412254 545.459 21.9449C536.497 37.283 526.577 51.7962 515.889 65.3865C494.848 92.1431 470.842 115.342 444.856 133.452C429.663 144.038 413.909 152.928 397.926 160.706C386.19 166.376 374.294 171.5 362.327 176.254C345.076 183.068 327.455 189.212 311.234 200.038C305.623 203.796 300.249 208.087 295.126 212.824C273.027 233.216 254.979 261.329 243.85 292.16C240.982 300.047 238.543 308.101 236.521 316.303C228.681 347.686 226.417 381.308 227.904 414.457C228.157 420.122 228.511 425.84 228.891 431.587C230.253 452.103 231.955 473.005 230.592 493.235C229.778 505.328 227.959 517.264 223.978 528.472C221.493 535.472 218.253 541.827 214.434 547.698C210.372 553.943 205.851 559.615 201.058 565.173C184.7 584.106 165.535 602.278 154.478 626.823M604.087 -229.654C617.517 -193.436 619.055 -150.078 606.827 -112.385C599.187 -88.7796 585.888 -71.6663 578.319 -48.1921C569.925 -22.2343 558.893 2.32184 545.781 25.0548C536.787 40.6502 526.804 55.3987 516.009 69.1631C494.752 96.2614 470.339 119.561 443.774 137.52C428.242 148.021 412.093 156.738 395.671 164.288C383.608 169.807 371.37 174.734 359.067 179.27C341.329 185.786 323.225 191.6 306.628 202.327C300.889 206.046 295.404 210.324 290.187 215.076C267.67 235.559 249.749 264.482 238.874 296.184C236.078 304.291 233.717 312.57 231.773 320.99C224.264 353.18 222.455 387.487 224.41 421.184C224.743 426.942 225.178 432.75 225.636 438.587C227.274 459.421 229.216 480.612 227.924 501.085C227.152 513.325 225.282 525.362 221.275 536.739C218.772 543.847 215.533 550.329 211.751 556.357C207.71 562.798 203.181 568.705 198.377 574.461C181.992 594.067 162.661 612.31 151.268 637.042M603.564 -227.829C617.715 -191.983 619.644 -148.736 607.518 -111.261C599.784 -87.3328 586.217 -70.1159 578.645 -46.2613C570.274 -19.9283 559.262 5.05828 546.107 28.1671C537.083 44.0225 527.038 59.0036 516.131 72.9422C494.659 100.381 469.841 123.782 442.694 141.594C426.824 152.005 410.28 160.553 393.417 167.877C381.025 173.244 368.447 177.971 355.808 182.292C337.584 188.509 318.995 193.994 302.022 204.624C296.157 208.302 290.56 212.568 285.249 217.334C262.313 237.91 244.52 267.642 233.899 300.217C231.177 308.545 228.896 317.047 227.027 325.683C219.847 358.682 218.495 393.674 220.918 427.92C221.33 433.77 221.846 439.67 222.383 445.595C224.297 466.746 226.48 488.227 225.257 508.941C224.526 521.328 222.608 533.468 218.572 545.012C216.051 552.228 212.823 558.847 209.068 565.025C205.058 571.671 200.509 577.802 195.695 583.757C179.283 604.039 159.785 622.351 148.057 647.271M603.039 -226.003C617.911 -190.529 620.23 -147.396 608.206 -110.139C600.379 -85.8898 586.544 -68.5693 578.97 -44.3317C570.623 -17.6235 559.63 7.7936 546.431 31.2769C519.548 79.1108 483.425 119.03 441.614 145.664C413.489 163.579 383.175 175.62 352.551 185.308C333.84 191.227 314.768 196.381 297.418 206.913C265.523 226.275 241.692 263.057 228.927 304.241C216.161 345.424 213.78 390.74 217.428 434.645C220.738 474.487 228.63 516.498 215.874 553.277C201.284 595.339 163.743 618.162 144.85 657.486M688.575 8.5843C661.584 -26.2371 624.528 -48.7334 585.85 -53.7766C574.845 -55.2111 563.299 -55.1732 553.249 -49.4191C524.21 -32.7908 517.871 16.1819 509.24 50.1367C498.824 91.1114 489.198 132.475 476.112 172.303C468.765 194.662 458.384 218.706 439.829 225.849C421.039 233.081 401.572 220.245 383.596 210.318C362.65 198.748 339.987 190.641 317.089 191.86C294.191 193.079 270.989 204.537 256.49 226.612C245.136 243.898 239.886 266.098 236.368 287.985C227.126 345.495 228.087 405.504 239.162 462.513M688.092 6.2428C664.238 -24.5334 632.036 -43.8316 596.523 -50.7355C593.225 -51.3769 589.917 -51.9281 586.595 -52.3377C575.68 -53.6781 564.257 -53.6105 554.291 -48.0106C525.46 -31.8266 518.605 15.6217 509.661 49.1186C501.733 78.8162 494.366 108.945 485.631 138.743C482.612 149.094 479.444 159.381 476.057 169.572C468.709 191.677 458.443 215.427 440.272 222.826C421.872 230.317 402.82 218.391 385.204 209.272C364.676 198.649 342.478 191.365 320.017 193.081C312.197 193.678 304.338 195.475 296.805 198.484C282.706 204.112 269.748 213.985 260.343 228.189C249.047 245.252 243.624 267.023 239.851 288.419C232.203 331.725 230.328 376.171 234.331 419.836C235.525 432.866 237.242 445.824 239.491 458.659M687.609 3.90414C664.551 -25.8464 633.196 -42.9302 597.177 -49.3945C593.907 -49.9803 590.631 -50.5122 587.342 -50.8945C576.517 -52.1382 565.216 -52.0437 555.332 -46.598C526.708 -30.8581 519.34 15.0632 510.084 48.1049C501.953 77.1299 494.501 106.804 485.612 136.386C482.571 146.607 479.391 156.772 476.003 166.845C468.655 188.697 458.503 212.152 440.716 219.807C422.705 227.555 404.068 216.539 386.814 208.229C366.706 198.551 344.969 192.093 322.949 194.306C315.282 195.078 307.571 197.006 300.173 200.102C286.329 205.885 273.557 215.753 264.201 229.77C252.962 246.609 247.367 267.949 243.337 288.855C235.158 331.173 232.475 374.29 235.537 416.874C236.45 429.581 237.873 442.237 239.823 454.806M687.127 1.56294C664.863 -27.1607 634.361 -42.0381 597.83 -48.0561C594.589 -48.5903 591.346 -49.1016 588.09 -49.4552C577.354 -50.6049 566.175 -50.478 556.377 -45.1892C527.96 -29.8935 520.082 14.4982 510.508 47.0872C502.179 75.4371 494.582 104.633 485.596 134.026C482.514 144.108 479.341 154.159 475.952 164.116C468.602 185.713 458.565 208.876 441.164 216.784C423.541 224.79 405.321 214.684 388.427 207.184C368.737 198.452 347.464 192.818 325.883 195.526C318.368 196.474 310.807 198.531 303.542 201.712C289.951 207.652 277.37 217.513 268.06 231.347C256.879 247.963 251.111 268.872 246.824 289.287C238.115 330.62 234.624 372.405 236.744 413.909C237.376 426.294 238.507 438.647 240.159 450.951M686.644 -0.775779C665.176 -28.4738 635.529 -41.1528 598.482 -46.7138C595.27 -47.1951 592.058 -47.6859 588.836 -48.0109C578.189 -49.0638 567.133 -48.9099 557.418 -43.7767C529.209 -28.9252 520.826 13.9369 510.929 46.0747C502.406 73.7494 494.698 102.485 485.576 131.671C482.467 141.621 479.287 151.549 475.897 161.391C468.547 182.734 458.626 205.603 441.607 213.766C424.374 222.031 406.569 212.835 390.035 206.144C370.764 198.357 349.954 193.546 328.812 196.753C321.448 197.874 314.038 200.062 306.906 203.329C293.569 209.426 281.177 219.28 271.912 232.929C260.787 249.321 254.847 269.801 250.305 289.723C241.064 330.069 236.766 370.525 237.943 410.949C238.293 423.013 239.13 435.063 240.484 447.101M686.161 -3.11551C665.488 -29.7879 636.7 -40.2754 599.135 -45.374C595.951 -45.8051 592.772 -46.2712 589.583 -46.5701C579.026 -47.529 568.091 -47.3442 558.46 -42.3651C530.46 -27.9578 521.575 13.3721 511.352 45.0612C502.641 72.0622 494.818 100.335 485.559 129.314C482.423 139.132 479.237 148.941 475.846 158.665C468.494 179.753 458.688 202.329 442.053 210.747C425.209 219.27 407.822 210.984 391.646 205.103C372.794 198.26 352.448 194.274 331.745 197.98C324.534 199.275 317.272 201.594 310.275 204.947C297.192 211.198 284.987 221.048 275.771 234.511C264.704 250.681 258.593 270.731 253.794 290.162C244.023 329.521 238.916 368.646 239.151 407.991C239.221 419.732 239.764 431.481 240.819 443.253M685.678 -5.45698C665.801 -31.1038 637.875 -39.4117 599.787 -44.0371C596.633 -44.4193 593.485 -44.8622 590.329 -45.1311C579.862 -45.9946 569.048 -45.7815 559.501 -40.958C531.708 -26.9935 522.328 12.8001 511.772 44.0419C502.878 70.3679 494.935 98.181 485.537 126.952C482.374 136.637 479.181 146.326 475.789 155.932C468.437 176.766 458.746 199.046 442.494 207.721C426.039 216.502 409.068 209.126 393.252 204.055C374.819 198.157 354.936 194.996 334.671 199.199C327.613 200.668 320.501 203.117 313.638 206.557C300.807 212.965 288.792 222.808 279.622 236.087C268.613 252.032 262.328 271.654 257.273 290.592C246.971 328.964 241.057 366.76 240.35 405.023C240.137 416.443 240.388 427.89 241.146 439.393M685.196 -7.79555C666.113 -32.4154 639.053 -38.5518 600.439 -42.6947C597.314 -43.0294 594.198 -43.4462 591.076 -43.6878C580.697 -44.4559 570.006 -44.2132 560.543 -39.5439C532.957 -26.025 523.086 12.2365 512.196 43.0296C503.123 68.6806 495.059 96.0326 485.52 124.599C482.33 134.152 479.129 143.718 475.738 153.208C468.384 173.787 458.808 195.775 442.94 204.704C426.875 213.745 410.319 207.277 394.865 203.015C376.851 198.062 357.431 195.726 337.606 200.426C330.7 202.068 323.738 204.649 317.008 208.175C304.432 214.738 292.606 224.575 283.482 237.67C272.53 253.391 266.073 272.583 260.76 291.032C249.929 328.417 243.206 364.883 241.556 402.068C241.063 413.164 241.019 424.31 241.478 435.548M684.713 -10.137C666.425 -33.7312 640.235 -37.707 601.092 -41.3566C597.998 -41.6451 594.913 -42.0346 591.823 -42.2475C581.535 -42.9202 570.965 -42.6478 561.586 -38.134C534.208 -25.0593 523.852 11.6647 512.618 42.013C503.373 66.9891 495.18 93.8811 485.502 122.238C482.286 131.658 479.077 141.105 475.684 150.479C468.33 170.804 458.869 192.497 443.386 201.684C427.708 210.982 411.569 205.425 396.475 201.972C378.88 197.965 359.923 196.454 340.537 201.65C333.783 203.466 326.971 206.177 320.374 209.789C308.052 216.509 296.415 226.339 287.337 239.251C276.443 254.749 269.814 273.51 264.245 291.469C252.882 327.866 245.353 363.003 242.76 399.107C241.985 409.882 241.647 420.724 241.81 431.698M684.23 -12.4769C666.737 -35.0456 641.417 -36.87 601.744 -40.0168C598.68 -40.2591 595.626 -40.6215 592.57 -40.807C582.37 -41.3844 571.923 -41.0823 562.629 -36.7254C535.457 -24.0935 524.62 11.0945 513.041 40.9966C503.629 65.2992 495.305 91.7311 485.484 119.88C482.243 129.17 479.024 138.495 475.632 147.751C468.276 167.822 458.93 189.221 443.831 198.663C428.542 208.219 412.82 203.574 398.086 200.929C380.908 197.869 362.415 197.181 343.468 202.875C336.868 204.866 330.204 207.708 323.741 211.405C311.672 218.281 300.225 228.107 291.194 240.83C280.357 256.104 273.555 274.437 267.73 291.903C255.838 327.315 247.499 361.12 243.965 396.144C242.909 406.597 242.278 417.137 242.143 427.844M683.749 -14.8167C667.051 -36.3598 642.604 -36.0423 602.397 -38.677C599.362 -38.8758 596.34 -39.2095 593.315 -39.3664C583.205 -39.8483 572.88 -39.5179 563.669 -35.3139C536.706 -23.1262 525.393 10.5244 513.46 39.9816C503.887 63.6121 495.428 89.5814 485.461 117.522C482.195 126.68 478.968 135.884 475.575 145.023C468.219 164.84 458.988 185.944 444.272 195.643C429.372 205.457 414.066 201.722 399.692 199.887C382.934 197.771 364.904 197.908 346.395 204.099C339.946 206.263 333.431 209.236 327.103 213.02C315.288 220.051 304.029 229.871 295.045 242.411C284.265 257.463 277.291 275.363 271.21 292.339C258.786 326.763 249.64 359.238 245.163 393.184C243.826 403.313 242.901 413.553 242.467 423.993M683.265 -17.1569C667.363 -37.6743 643.79 -35.2271 603.049 -37.3376C600.044 -37.4929 597.053 -37.7951 594.062 -37.926C584.04 -38.3126 573.837 -37.9525 564.711 -33.9054C537.956 -22.1619 526.175 9.95407 513.882 38.965C504.155 61.9235 495.553 87.4299 485.444 115.163C482.154 124.19 478.917 133.272 475.524 142.294C468.166 161.856 459.051 182.669 444.719 192.62C430.209 202.693 415.319 199.865 401.305 198.843C384.965 197.671 367.4 198.634 349.33 205.321C343.034 207.659 336.669 210.762 330.475 214.633C318.913 221.819 307.843 231.633 298.905 243.989C288.183 258.817 281.035 276.289 274.699 292.773C261.746 326.211 251.791 357.355 246.371 390.22C244.752 400.028 243.534 409.965 242.803 420.137M682.782 -19.4953C667.675 -38.9858 644.979 -34.4223 603.702 -35.9963C600.729 -36.1095 597.767 -36.3885 594.809 -36.4827C584.878 -36.7981 574.797 -36.3842 565.754 -32.4926C539.206 -21.1946 526.962 9.38819 514.307 37.9515C504.431 60.2421 495.683 85.2843 485.427 112.807C482.113 121.702 478.866 130.661 475.47 139.568C468.113 158.876 459.112 179.393 445.164 189.601C431.042 199.931 416.568 198.014 402.916 197.8C386.994 197.575 369.893 199.361 352.262 206.546C346.118 209.058 339.902 212.293 333.842 216.249C322.535 223.593 311.653 233.401 302.763 245.57C292.098 260.174 284.778 277.216 278.186 293.209C264.701 325.659 253.938 355.474 247.578 387.259C245.678 396.745 244.166 406.38 243.137 416.288M682.3 -21.8367C667.988 -40.3016 646.169 -33.6326 604.354 -34.6567C601.411 -34.7291 598.481 -34.9753 595.555 -35.0422C585.714 -35.2636 575.754 -34.8186 566.795 -31.0826C540.454 -20.2275 527.756 8.82214 514.728 36.9349C504.708 58.5577 495.809 83.1356 485.408 110.447C482.071 119.211 478.813 128.049 475.417 136.838C468.057 155.892 459.171 176.116 445.608 186.579C431.875 197.167 417.818 196.161 404.525 196.756C389.023 197.475 372.384 200.087 355.191 207.769C349.198 210.455 343.135 213.82 337.206 217.864C326.152 225.363 315.46 235.164 306.615 247.149C296.008 261.53 288.516 278.141 281.666 293.643C267.651 325.107 256.081 353.591 248.776 384.297C246.595 393.461 244.79 402.794 243.463 412.435M681.816 -24.1768C668.3 -41.6161 647.358 -32.8537 605.006 -33.3172C602.093 -33.3488 599.194 -33.5623 596.301 -33.6005C586.549 -33.7278 576.712 -33.2532 567.837 -29.6714C541.704 -19.2605 528.556 8.25888 515.15 35.9211C504.993 56.8801 495.94 80.9883 485.389 108.091C482.028 116.723 478.759 125.44 475.363 134.112C468.003 152.912 459.232 172.841 446.052 183.559C432.709 194.407 419.067 194.311 406.134 195.715C391.051 197.38 374.875 200.816 358.122 208.996C352.282 211.856 346.367 215.352 340.572 219.481C329.772 227.135 319.268 236.931 310.471 248.733C299.921 262.89 292.256 279.071 285.15 294.084C270.604 324.56 258.226 351.715 249.98 381.341C247.518 390.182 245.419 399.214 243.794 408.588M681.335 -26.5167C668.614 -42.9304 648.55 -32.0881 605.66 -31.9788C602.778 -31.971 599.908 -32.1519 597.049 -32.1613C587.387 -32.1947 577.67 -31.6891 568.88 -28.2628C542.955 -18.2961 529.364 7.69573 515.571 34.9033C505.283 55.2 496.07 78.8398 485.369 105.732C481.985 114.234 478.706 122.828 475.31 131.383C467.948 149.928 459.292 169.564 446.496 180.538C433.542 191.643 420.316 192.456 407.744 194.67C393.08 197.28 377.366 201.542 361.053 210.217C355.365 213.252 349.6 216.877 343.939 221.094C333.392 228.905 323.078 238.696 314.328 250.311C303.836 264.243 295.999 279.995 288.636 294.517C273.56 324.007 260.374 349.832 251.185 378.376C248.44 386.895 246.048 395.624 244.126 404.733M680.851 -28.8566C668.924 -44.2433 649.74 -31.336 606.311 -30.6378C603.459 -30.5918 600.62 -30.7373 597.794 -30.718C588.221 -30.6546 578.632 -30.0991 569.921 -26.85C544.219 -17.2625 530.178 7.14221 515.993 33.891C505.578 53.5308 496.202 76.6967 485.35 103.375C481.944 111.746 478.653 120.219 475.256 128.656C467.894 146.948 459.353 166.289 446.94 177.519C434.373 188.883 421.565 190.606 409.354 193.628C395.109 197.184 379.859 202.269 363.984 211.443C358.449 214.651 352.834 218.408 347.307 222.71C337.014 230.678 326.888 240.461 318.184 251.892C307.748 265.602 299.738 280.924 292.12 294.953C276.513 323.455 262.519 347.95 252.388 375.416C249.362 383.612 246.676 392.04 244.457 400.884M680.37 -31.1964C669.238 -45.5576 650.932 -30.596 606.965 -29.298C604.144 -29.214 601.335 -29.3227 598.543 -29.2774C589.059 -29.12 579.593 -28.5348 570.966 -25.4399C545.471 -16.298 531.002 6.59012 516.42 32.8746C505.886 51.8603 496.341 74.5511 485.336 101.017C481.91 109.259 478.605 117.608 475.207 125.93C467.844 143.967 459.417 163.014 447.39 174.501C435.213 186.125 422.821 188.755 410.969 192.588C397.142 197.09 382.356 202.999 366.92 212.67C361.537 216.052 356.07 219.94 350.677 224.327C340.638 232.45 330.702 242.229 322.044 253.475C311.665 266.961 303.485 281.855 295.61 295.393C279.473 322.908 264.669 346.075 253.597 372.458C250.289 380.333 247.311 388.457 244.793 397.034M679.886 -33.5364C669.549 -46.8733 652.122 -29.8709 607.617 -27.9569C604.826 -27.8362 602.048 -27.9094 599.288 -27.8342C589.894 -27.58 580.549 -26.9666 572.005 -24.0272C546.717 -15.3282 531.83 6.04756 516.838 31.861C506.191 50.1967 496.472 72.4094 485.314 98.6596C481.866 106.771 478.547 114.997 475.15 123.202C467.787 140.985 459.476 159.739 447.831 171.481C436.042 183.362 424.067 186.904 412.575 191.545C399.167 196.991 384.844 203.725 369.846 213.894C364.616 217.45 359.299 221.469 354.039 225.942C344.253 234.221 334.505 243.994 325.894 255.055C315.573 268.317 307.22 282.78 299.088 295.827C282.42 322.355 266.808 344.191 254.796 369.496C251.207 377.048 247.935 384.87 245.118 393.182M679.404 -35.8777C669.862 -48.189 653.31 -29.162 608.269 -26.62C605.508 -26.4638 602.761 -26.4977 600.035 -26.3964C590.73 -26.0482 581.507 -25.4051 573.048 -22.62C547.967 -14.3665 532.667 5.50492 517.262 30.8431C506.505 48.5343 496.612 70.2649 485.297 96.3002C481.829 104.282 478.496 112.385 475.098 120.472C467.733 138 459.537 156.461 448.276 168.457C436.876 180.597 425.317 185.048 414.185 190.5C401.195 196.891 387.336 204.449 372.779 215.115C367.701 218.845 362.534 222.995 357.408 227.555C347.876 235.99 338.317 245.756 329.754 256.633C319.491 269.672 310.964 283.705 302.577 296.26C285.379 321.802 268.958 342.307 256.002 366.532C252.132 373.761 248.566 381.282 245.451 389.328M678.921 -38.2164C670.174 -49.5007 654.498 -28.4667 608.922 -25.279C606.192 -25.0874 603.475 -25.0832 600.782 -24.9533C591.566 -24.5083 582.465 -23.8369 574.09 -21.2087C549.215 -13.3994 533.513 4.97452 517.683 29.8279C506.823 46.8787 496.749 68.1232 485.276 93.9424C481.787 101.795 478.443 109.773 475.043 117.744C467.678 135.019 459.596 153.185 448.72 165.435C437.71 177.834 426.566 183.194 415.794 189.456C403.223 196.793 389.827 205.176 375.708 216.338C370.783 220.242 365.766 224.522 360.773 229.168C351.496 237.759 342.126 247.52 333.607 258.211C323.401 271.026 314.703 284.629 306.059 296.695C288.331 321.248 271.103 340.424 257.204 363.568C253.052 370.476 249.193 377.695 245.781 385.473M678.438 -40.5565C670.486 -50.8152 655.683 -27.7864 609.573 -23.9382C606.873 -23.7139 604.187 -23.6702 601.528 -23.5116C592.401 -22.9699 583.419 -22.2918 575.131 -19.7961C550.452 -12.4932 534.364 4.45493 518.104 28.8154C507.145 45.2325 496.889 65.9841 485.258 91.5871C481.749 99.3112 478.391 107.165 474.991 115.019C467.624 132.038 459.658 149.911 449.165 162.418C438.544 175.074 427.817 181.345 417.406 188.415C405.254 196.696 392.321 205.904 378.641 217.565C373.869 221.643 369 226.054 364.142 230.786C355.117 239.533 345.937 249.286 337.465 259.794C327.316 272.387 318.445 285.56 309.544 297.134C291.286 320.702 273.249 338.547 258.409 360.611C253.976 367.196 249.823 374.112 246.114 381.627M677.956 -42.8964C670.8 -52.1295 656.868 -27.1219 610.227 -22.5983C607.557 -22.3387 604.903 -22.2556 602.276 -22.0696C593.239 -21.4312 584.378 -20.7248 576.175 -18.386C551.702 -11.5286 535.226 3.9424 518.529 27.7991C507.477 43.5893 497.034 63.8439 485.241 89.228C481.713 96.8238 478.34 104.553 474.938 112.291C467.571 129.057 459.719 146.635 449.611 159.397C439.378 172.311 429.067 179.494 419.016 187.372C407.283 196.6 394.814 206.632 381.572 218.789C376.95 223.041 372.233 227.581 367.508 232.4C358.737 241.303 349.744 251.051 341.322 261.374C331.23 273.743 322.187 286.485 313.029 297.569C294.24 320.148 275.396 336.665 259.612 357.649C254.898 363.913 250.451 370.526 246.444 377.773M677.473 -45.2363C671.111 -53.4438 658.047 -26.4739 610.879 -21.2601C608.239 -20.9677 605.614 -20.8437 603.022 -20.6304C594.074 -19.8953 585.335 -19.162 577.216 -16.976C552.952 -10.5629 536.093 3.442 518.95 26.7827C507.807 41.9528 497.175 61.7036 485.221 86.8701C481.673 94.3376 478.284 101.942 474.884 109.563C467.515 126.074 459.779 143.359 450.054 156.377C440.211 169.55 430.316 177.639 420.624 186.329C409.31 196.503 397.304 207.359 384.503 220.013C380.033 224.44 375.465 229.111 370.875 234.016C362.357 243.075 353.555 252.818 345.177 262.955C335.143 275.099 325.927 287.412 316.513 298.005C297.194 319.598 277.541 334.784 260.816 354.688C255.821 360.629 251.08 366.941 246.775 373.922M676.99 -47.5776C671.424 -54.7595 659.226 -25.8447 611.531 -19.9204C608.92 -19.5966 606.328 -19.4238 603.768 -19.1886C594.91 -18.3365 586.292 -17.5951 578.258 -15.5647C554.201 -9.59432 536.969 2.95386 519.372 25.769C508.144 40.3245 497.321 59.5701 485.203 84.5123C481.637 91.8514 478.232 99.3312 474.831 106.835C467.462 123.093 459.84 140.083 450.499 153.356C441.045 166.787 431.566 175.787 422.235 185.287C411.339 196.404 399.797 208.086 387.433 221.237C383.117 225.838 378.697 230.64 374.241 235.631C365.978 244.846 357.364 254.582 349.033 264.535C339.056 276.457 329.667 288.34 319.999 298.442C300.148 319.047 279.688 332.904 262.02 351.727C256.743 357.347 251.71 363.356 247.106 370.07M676.508 -49.9163C671.736 -56.0713 660.4 -25.2291 612.184 -18.5794C609.603 -18.223 607.043 -18.0094 604.514 -17.7482C595.747 -16.8007 587.252 -16.0297 579.3 -14.1562C555.451 -8.63002 537.852 2.4791 519.794 24.7511C508.483 38.7015 497.466 57.4324 485.183 82.153C481.599 89.3652 478.179 96.7193 474.777 104.105C467.406 120.108 459.901 136.805 450.942 150.333C441.876 164.022 432.814 173.933 423.843 184.241C413.366 196.304 402.287 208.81 390.362 222.458C386.197 227.232 381.928 232.166 377.605 237.243C369.596 246.613 361.171 256.345 352.885 266.112C342.967 277.81 333.405 289.263 323.479 298.873C303.098 318.492 281.83 331.018 263.22 348.763C257.662 354.06 252.334 359.769 247.434 366.216M676.025 -52.2577C672.049 -57.387 661.571 -24.6325 612.837 -17.2412C610.286 -16.8535 607.757 -16.5976 605.261 -16.3077C596.582 -15.2649 588.209 -14.4642 580.342 -12.7449C556.701 -7.66294 538.742 2.02065 520.216 23.7372C508.825 37.0906 497.615 55.3015 485.165 79.7951C481.563 86.8816 478.126 94.1088 474.723 101.378C467.352 117.127 459.96 133.531 451.387 147.315C442.71 161.262 434.065 172.084 425.454 183.2C415.397 196.208 404.781 209.538 393.295 223.685C389.283 228.633 385.163 233.698 380.973 238.86C373.217 248.387 364.981 258.111 356.744 267.694C346.882 279.168 337.148 290.192 326.966 299.31C306.054 317.942 283.978 329.137 264.426 345.802C258.587 350.777 252.966 356.184 247.767 362.365M675.543 -54.5962C672.362 -58.6999 662.738 -24.0533 613.49 -15.8988C610.968 -15.481 608.469 -15.1816 606.008 -14.8644C597.42 -13.7261 589.168 -12.8972 581.385 -11.3334C557.951 -6.69701 539.637 1.5787 520.64 22.7223C509.17 35.4868 497.766 53.1695 485.148 77.4387C481.53 84.3982 478.075 91.4998 474.672 98.6519C467.299 114.146 460.024 130.255 451.834 144.296C443.546 158.502 435.316 170.232 427.066 182.159C417.427 196.112 407.274 210.268 396.227 224.911C392.367 230.033 388.397 235.227 384.34 240.477C376.837 250.16 368.79 259.878 360.598 269.276C350.794 280.528 340.887 291.12 330.45 299.749C309.009 317.394 286.124 327.259 265.629 342.843C259.508 347.496 253.594 352.6 248.097 358.515M675.06 -56.9374C672.675 -60.0156 663.899 -23.4929 614.142 -14.5617C611.648 -14.1139 609.184 -13.7712 606.754 -13.4253C598.254 -12.1916 590.124 -11.333 582.427 -9.92476C559.2 -5.7312 540.538 1.15151 521.061 21.7046C509.516 33.8882 497.918 51.0375 485.128 75.0782C481.492 81.9121 478.021 88.884 474.617 95.9214C467.244 111.162 460.082 126.977 452.278 141.272C444.379 155.735 436.565 168.376 428.675 181.112C419.454 196.012 409.766 210.991 399.158 226.131C395.451 231.426 391.63 236.753 387.708 242.089C380.46 251.928 372.601 261.642 364.456 270.855C354.708 281.882 344.63 292.044 333.935 300.183C311.964 316.842 288.27 325.376 266.833 339.882C260.432 344.212 254.222 349.014 248.429 354.663M674.576 -59.2775C672.986 -61.3287 665.055 -22.9505 614.794 -13.2222C612.33 -12.7458 609.896 -12.3582 607.501 -11.9849C599.091 -10.6559 591.084 -9.76756 583.468 -8.5149C560.449 -4.76552 541.444 0.74303 521.483 20.6893C509.862 32.3016 498.071 48.912 485.11 72.7202C481.458 79.4285 477.969 86.2734 474.565 93.1935C467.19 108.179 460.144 123.7 452.723 138.251C445.213 152.972 437.815 166.524 430.285 180.069C421.484 195.913 412.258 211.718 402.089 227.355C398.534 232.825 394.864 238.281 391.074 243.704C384.079 253.699 376.41 263.405 368.313 272.434C358.623 283.238 348.371 292.971 337.42 300.617C314.918 316.289 290.417 323.494 268.037 336.918C261.354 340.927 254.851 345.426 248.761 350.81M674.094 -61.6162C673.298 -62.6418 666.206 -22.4268 615.446 -11.8798C613.01 -11.3735 610.611 -10.9422 608.247 -10.5403C599.927 -9.11723 592.04 -8.19794 584.51 -7.10082C561.699 -3.79562 542.353 0.359024 521.904 19.6769C510.207 30.7272 498.248 46.8098 485.089 70.365C481.428 76.9545 477.914 83.6656 474.51 90.4683C467.135 105.201 460.203 120.427 453.166 135.233C446.046 150.214 439.065 164.674 431.894 179.029C423.511 195.819 414.749 212.448 405.019 228.583C401.617 234.227 398.095 239.814 394.439 245.322C387.697 255.473 380.217 265.173 372.166 274.017C362.534 284.598 352.111 293.902 340.903 301.057C317.871 315.742 292.561 321.616 269.24 333.961C262.276 337.647 255.48 341.845 249.091 346.962M673.611 -63.9574C673.611 -63.9574 667.352 -21.9234 616.099 -10.5414C564.847 0.840536 532.066 -14.3975 485.072 68.0059C452.599 124.949 432.437 191.921 397.807 246.934C383.56 269.569 365.437 289.254 344.389 301.49C320.826 315.187 294.709 319.733 270.444 330.997C263.198 334.362 256.11 338.256 249.422 343.108" stroke="white" stroke-width="0.197078" stroke-miterlimit="10"/>
</g>
<defs>
<filter id="filter0_f_2_1349" x="37.7251" y="43.8429" width="609.55" height="389.314" filterUnits="userSpaceOnUse" color-interpolation-filters="sRGB">
<feFlood flood-opacity="0" result="BackgroundImageFix"/>
<feBlend mode="normal" in="SourceGraphic" in2="BackgroundImageFix" result="shape"/>
<feGaussianBlur stdDeviation="25.5786" result="effect1_foregroundBlur_2_1349"/>
</filter>
<clipPath id="clip0_2_1349">
<rect width="533.896" height="361" rx="15" fill="white"/>
</clipPath>
</defs>
</svg>
